<svg width="37" height="17" viewBox="0 0 37 17" fill="none" xmlns="http://www.w3.org/2000/svg">
<rect width="37" height="17" rx="8.5" fill="#EB5757"/>
<path d="M17.969 8.886V8.058H14.432V6.69H17.339V5.862H14.432V4.449H13.55V5.862H10.715V6.69H13.55V8.058H10.067V8.886H13.109C12.317 9.975 11.03 11.001 9.806 11.541C9.995 11.721 10.274 12.045 10.418 12.252C11.543 11.676 12.695 10.704 13.55 9.597V12.702H14.432V9.561C15.287 10.677 16.439 11.694 17.573 12.261C17.726 12.045 17.987 11.712 18.185 11.541C16.961 11.01 15.665 9.975 14.864 8.886H17.969ZM26.339 8.499C26.546 8.049 26.771 7.347 26.942 6.726L26.42 6.6L26.285 6.627H24.728V5.925H26.546V5.223H24.728V4.458H23.909V5.223H22.1V5.925H23.909V6.627H21.785V7.338H26.024C25.916 7.707 25.799 8.076 25.691 8.346L26.339 8.499ZM24.107 8.418C23.819 8.157 23.252 7.806 22.802 7.581L22.433 7.995C22.892 8.229 23.459 8.607 23.729 8.877L24.107 8.418ZM21.362 5.925C21.056 5.556 20.408 5.007 19.922 4.62L19.391 5.16C19.877 5.574 20.507 6.159 20.795 6.537L21.362 5.925ZM26.987 10.38V9.66H24.863C24.926 9.318 24.944 8.976 24.944 8.661V7.635H24.143V8.643C24.143 8.958 24.125 9.309 24.026 9.66H23.153L23.495 9.255C23.207 8.967 22.631 8.598 22.163 8.355L21.785 8.787C22.226 9.021 22.739 9.39 23.045 9.66H21.596V10.362L21.56 10.263L20.867 10.83V7.221H18.887V8.022H20.102V11.109C20.102 11.559 19.85 11.874 19.679 12.009C19.805 12.135 20.021 12.414 20.102 12.585C20.237 12.387 20.471 12.162 21.884 10.974C21.803 10.839 21.686 10.596 21.605 10.38H23.738C23.378 11.019 22.703 11.631 21.443 12.108C21.614 12.27 21.857 12.567 21.938 12.765C23.54 12.126 24.305 11.253 24.656 10.38H26.987ZM24.602 11.082C25.322 11.559 26.195 12.279 26.609 12.747L27.14 12.207C26.708 11.73 25.808 11.055 25.106 10.605L24.602 11.082Z" fill="white"/>
</svg>
