<svg width="37" height="17" viewBox="0 0 37 17" fill="none" xmlns="http://www.w3.org/2000/svg">
<rect width="37" height="17" rx="8.5" fill="#EB5757"/>
<path d="M11.944 6.086C12.544 6.086 13.027 6.266 13.393 6.626C13.765 6.986 13.951 7.52 13.951 8.228V11H12.547V8.444C12.547 8.06 12.463 7.775 12.295 7.589C12.127 7.397 11.884 7.301 11.566 7.301C11.212 7.301 10.93 7.412 10.72 7.634C10.51 7.85 10.405 8.174 10.405 8.606V11H9.00103V6.158H10.342V6.725C10.528 6.521 10.759 6.365 11.035 6.257C11.311 6.143 11.614 6.086 11.944 6.086ZM20.0194 8.597C20.0194 8.615 20.0104 8.741 19.9924 8.975H16.3294C16.3954 9.275 16.5514 9.512 16.7974 9.686C17.0434 9.86 17.3494 9.947 17.7154 9.947C17.9674 9.947 18.1894 9.911 18.3814 9.839C18.5794 9.761 18.7624 9.641 18.9304 9.479L19.6774 10.289C19.2214 10.811 18.5554 11.072 17.6794 11.072C17.1334 11.072 16.6504 10.967 16.2304 10.757C15.8104 10.541 15.4864 10.244 15.2584 9.866C15.0304 9.488 14.9164 9.059 14.9164 8.579C14.9164 8.105 15.0274 7.679 15.2494 7.301C15.4774 6.917 15.7864 6.62 16.1764 6.41C16.5724 6.194 17.0134 6.086 17.4994 6.086C17.9734 6.086 18.4024 6.188 18.7864 6.392C19.1704 6.596 19.4704 6.89 19.6864 7.274C19.9084 7.652 20.0194 8.093 20.0194 8.597ZM17.5084 7.148C17.1904 7.148 16.9234 7.238 16.7074 7.418C16.4914 7.598 16.3594 7.844 16.3114 8.156H18.6964C18.6484 7.85 18.5164 7.607 18.3004 7.427C18.0844 7.241 17.8204 7.148 17.5084 7.148ZM28.6423 6.158L26.8873 11H25.5373L24.4483 7.994L23.3233 11H21.9733L20.2273 6.158H21.5503L22.6933 9.434L23.8813 6.158H25.0693L26.2213 9.434L27.4003 6.158H28.6423Z" fill="white"/>
</svg>
